<?xml version="1.0" standalone="no"?>
<!DOCTYPE svg PUBLIC "-//W3C//DTD SVG 20010904//EN"
 "http://www.w3.org/TR/2001/REC-SVG-20010904/DTD/svg10.dtd">
<svg version="1.0" xmlns="http://www.w3.org/2000/svg"
 width="215.000000pt" height="215.000000pt" viewBox="0 0 215.000000 215.000000"
 preserveAspectRatio="xMidYMid meet">
<metadata>
Created by potrace 1.14, written by Peter Selinger 2001-2017
</metadata>
<g transform="translate(0.000000,215.000000) scale(0.100000,-0.100000)"
fill="#000000" stroke="none">
<path d="M0 1075 l0 -1075 1075 0 1075 0 0 1075 0 1075 -1075 0 -1075 0 0
-1075z m471 823 c59 -25 66 -40 214 -455 32 -90 62 -163 67 -163 24 0 179 59
448 171 162 67 318 128 345 135 74 20 141 18 185 -7 55 -31 70 -64 70 -152 0
-72 -1 -75 -26 -81 -17 -5 -32 -2 -43 9 -10 8 -27 15 -39 15 -27 0 -207 -62
-372 -127 -69 -28 -186 -72 -260 -99 -74 -26 -137 -50 -140 -52 -6 -4 23 -30
195 -177 400 -340 605 -552 605 -626 0 -44 -47 -69 -132 -69 l-67 0 -73 88
c-41 48 -155 163 -254 255 -191 180 -241 223 -250 214 -3 -3 19 -72 49 -154
72 -196 74 -204 44 -238 -18 -22 -34 -29 -75 -33 -28 -2 -63 -1 -78 2 -15 4
-67 46 -116 93 -53 51 -94 83 -102 80 -19 -7 -111 17 -142 38 -29 18 -54 71
-54 110 0 38 26 83 60 100 33 17 106 20 144 5 17 -6 26 -6 26 0 0 6 -21 66
-47 134 l-47 125 -39 6 c-79 14 -142 105 -117 170 6 15 19 29 30 32 11 3 20
10 20 16 0 6 -52 143 -116 305 -129 325 -130 331 -65 364 31 16 37 16 70 1 20
-8 57 -24 82 -35z"/>
</g>
</svg>
