<svg width="296" height="108" viewBox="0 0 296 108" fill="none" xmlns="http://www.w3.org/2000/svg">
<path d="M1.16938 4.59607L2 4.7908C1.16938 4.59607 1.16947 4.59569 1.16956 4.59529L1.16976 4.59445L1.17021 4.59257L1.17129 4.58806L1.17426 4.57601C1.1766 4.56666 1.17966 4.5547 1.1835 4.54031C1.19118 4.51155 1.20198 4.47294 1.21626 4.42596C1.24476 4.33222 1.28752 4.20387 1.34762 4.05294C1.46662 3.75406 1.65988 3.35073 1.95692 2.94948C2.56568 2.12715 3.63513 1.29838 5.30061 1.44888L5.52285 1.46897L5.70501 1.59406M1.16938 4.59607L5.70467 1.59384L5.70501 1.59406M1.16938 4.59607L1.10866 4.8551L1.20593 5.10272L8.55483 23.811L8.55657 23.8154L13.3545 35.8352L13.264 35.8367L12.5853 35.8477L12.4476 35.8499L12.3176 35.8954L11.1012 36.3207L10.9307 36.3803L10.799 36.5039C9.67107 37.5625 9.79826 39.0546 10.0424 40.0172C10.1717 40.5271 10.3539 40.9768 10.5008 41.2956C10.5749 41.4563 10.6417 41.5872 10.691 41.6798C10.7157 41.7262 10.7362 41.7632 10.7511 41.7897L10.7521 41.7915C11.3979 43.2053 12.5646 43.9973 13.5089 44.4289C13.9898 44.6487 14.4313 44.7839 14.7539 44.8647C14.9159 44.9052 15.0499 44.9326 15.1464 44.9501C15.1909 44.9583 15.2276 44.9643 15.2555 44.9687C16.3761 45.2561 17.1231 45.4019 17.6018 45.4759C17.6574 45.4845 17.7095 45.4921 17.7582 45.4989L19.1074 48.7923L24.0558 62.0148C21.9666 60.0924 19.9732 59.3975 18.6326 59.0845L18.5802 59.0723L18.5267 59.0667C16.3561 58.8416 14.8435 59.2816 13.8475 59.8339C13.3545 60.1072 13.0007 60.4012 12.7635 60.6373C12.645 60.7552 12.5557 60.8586 12.4926 60.9379C12.4664 60.9707 12.4447 60.9995 12.4273 61.0234C11.1623 62.4364 11.0594 64.0543 11.2519 65.2557C11.3487 65.8602 11.5214 66.3756 11.6687 66.7393C11.7428 66.9222 11.8117 67.0697 11.8637 67.1742C11.8897 67.2265 11.9115 67.2683 11.9278 67.2986C11.9313 67.3051 11.9346 67.3111 11.9376 67.3166C11.9415 67.3238 11.945 67.3301 11.9479 67.3354L11.9546 67.3472L11.957 67.3514L11.9579 67.3531L11.9583 67.3538C11.9585 67.3542 11.9587 67.3545 12.6946 66.9315L11.9587 67.3545L11.9639 67.3634C12.5964 68.4334 13.349 69.0939 13.9616 69.4893C14.2665 69.6862 14.5351 69.8164 14.735 69.8994C14.8351 69.9409 14.9182 69.9707 14.9805 69.9913C15.0117 70.0015 15.0376 70.0095 15.058 70.0154L15.0842 70.0228L15.094 70.0255L15.0981 70.0266L15.1 70.027L15.1008 70.0273C15.1012 70.0274 15.1016 70.0275 15.314 69.2012L15.1016 70.0275L17.961 70.7622L15.9343 68.6155C15.8065 68.4801 15.7944 68.3917 15.8054 68.2963C15.8508 67.9705 15.9459 67.8881 15.9577 67.8781C15.9753 67.8632 16.0221 67.8336 16.1476 67.8319C16.2773 67.8303 16.427 67.8608 16.5619 67.9032C16.6253 67.9231 16.6769 67.943 16.7105 67.9569C16.7158 67.9591 16.7206 67.9611 16.7248 67.9629C16.7339 67.9668 16.7405 67.9697 16.7446 67.9716C16.7446 67.9716 16.7446 67.9716 16.7447 67.9716C16.7469 67.9726 16.7483 67.9733 16.7487 67.9735L16.7475 67.9729L16.7459 67.9721L16.7622 67.9805L16.8445 68.0224C16.9161 68.059 17.0197 68.1123 17.1468 68.1784C17.4012 68.3106 17.7482 68.4936 18.1192 68.6966C18.8917 69.1193 19.672 69.5778 20.0021 69.8503L20.0588 69.8971L20.1227 69.9335C20.5925 70.2013 21.3467 70.8446 22.2979 71.7496C23.0899 72.5031 23.9651 73.3852 24.85 74.2772C25.0021 74.4304 25.1545 74.584 25.3067 74.7372C26.2339 75.7058 27.4967 76.8286 28.5134 77.6987C29.0258 78.1373 29.4814 78.5165 29.8091 78.7862C29.973 78.9212 30.1051 79.0288 30.1964 79.1029L30.3018 79.1882L30.3296 79.2106L30.3369 79.2165L30.3388 79.218L30.3393 79.2185L30.3395 79.2186C30.3396 79.2186 30.3396 79.2187 30.8734 78.5531L30.3396 79.2187L30.4153 79.2794L30.5028 79.3216C32.0857 80.085 33.757 80.0657 34.9806 79.8831C35.5993 79.7908 36.124 79.6538 36.4959 79.5392C36.6823 79.4818 36.8318 79.4296 36.9371 79.3908C36.9898 79.3713 37.0315 79.3552 37.0614 79.3433L37.0972 79.3289L37.1083 79.3243L37.1121 79.3228L37.1136 79.3222L37.1142 79.3219C37.1145 79.3218 37.1148 79.3217 36.7834 78.5355L37.1148 79.3217L37.1338 79.3136L37.1525 79.3047C38.1319 78.8346 38.6834 78.3066 38.9448 77.7635C39.0758 77.4913 39.1215 77.2391 39.1233 77.0299C39.1236 76.9955 39.1227 76.9627 39.1208 76.9315C39.134 76.8408 39.1338 76.7688 39.1336 76.7329V76.7313C39.1332 76.5966 39.1163 76.4555 39.0951 76.3246C39.052 76.0585 38.9726 75.7256 38.8702 75.3506C38.6638 74.5949 38.3396 73.5811 37.9403 72.4088C37.1401 70.0596 36.0195 67.0188 34.8834 64.0144C33.7466 61.008 32.5914 58.0304 31.7206 55.8049C31.6109 55.5247 31.5058 55.2564 31.4058 55.0014L32.3571 55.7397L43.9621 66.2084L52.4131 74.1473L58.4693 80.4299L58.4793 80.4403L58.4897 80.4504C58.8377 80.7877 59.5418 81.6344 60.3159 82.6065C61.0744 83.5589 61.8575 84.5771 62.3452 85.2164L62.3465 85.218C62.8111 85.8239 63.5074 86.2267 64.2835 86.3037L64.2847 86.3038C65.3842 86.4112 66.5864 86.4132 67.5008 86.39C67.9608 86.3783 68.3539 86.36 68.6326 86.3447C68.7721 86.337 68.8832 86.33 68.96 86.3249L69.0488 86.3188L69.0726 86.3171L69.079 86.3166L69.0809 86.3165L69.0815 86.3165L69.0817 86.3164C69.0818 86.3164 69.0819 86.3164 69.0172 85.4657L69.0819 86.3164L69.1605 86.3104L69.2367 86.2902C70.7082 85.8983 71.5403 85.311 71.9771 84.6746C72.1945 84.3578 72.2951 84.0545 72.3352 83.8074C72.355 83.6854 72.3597 83.5801 72.3578 83.4963C72.357 83.4591 72.3549 83.4262 72.3523 83.3978C72.3282 82.8269 72.0267 82.1901 71.6918 81.6147C71.3221 80.9793 70.809 80.2526 70.2142 79.4833C69.0224 77.942 67.4478 76.1597 65.8886 74.4775C64.3265 72.7922 62.7671 71.194 61.5993 70.018C61.0151 69.4297 60.5282 68.9464 60.1871 68.6099C60.0166 68.4417 59.8825 68.3101 59.7908 68.2205L59.6859 68.118L59.6587 68.0916L59.6517 68.0848L59.6499 68.083L59.6494 68.0825C59.6493 68.0824 59.6492 68.0823 59.0549 68.6944L59.6492 68.0823L59.6368 68.0703L59.6239 68.0587L49.0225 58.5679L49.0226 58.5679L49.0143 58.5607L48.4535 59.2036C49.0143 58.5607 49.0143 58.5607 49.0142 58.5606L49.0139 58.5603L49.0126 58.5592L49.0074 58.5546L48.9869 58.5368L48.9069 58.467L48.6014 58.2009C48.3373 57.9708 47.9575 57.6401 47.4949 57.238C46.5697 56.4338 45.3131 55.3433 43.9875 54.1984C41.3458 51.9168 38.4036 49.396 37.2852 48.514C36.2011 47.6591 34.3568 46.1007 32.7725 44.7462C32.1081 44.1781 31.4921 43.6482 31.0014 43.2249L33.2591 42.4355C35.389 41.6918 37.1635 41.0714 38.4056 40.637L39.8473 40.1327L40.2271 39.9997L40.3245 39.9656L40.3492 39.957L40.3554 39.9548L40.3569 39.9543L40.3573 39.9541L40.3574 39.9541L40.0755 39.149L40.3574 39.9541L40.3652 39.9514L40.3728 39.9485L50.6437 36.1297L50.6536 36.126L50.6635 36.1221L59.6276 32.5329L67.5183 29.7737L67.2561 29.0236L67.5184 29.7737C70.5698 28.7065 72.0883 28.8109 72.4297 28.8479C73.3226 29.0912 73.9593 29.6001 74.382 30.0662C74.597 30.3033 74.7517 30.5243 74.8508 30.6823C74.9001 30.761 74.935 30.823 74.9561 30.8623C74.9596 30.8688 74.9627 30.8747 74.9654 30.8799C74.9709 30.8904 74.9749 30.8982 74.9773 30.9031L74.9781 30.9044L74.9784 30.905C74.9784 30.905 74.9783 30.905 74.9802 30.904L76.6029 30.5957L75.7513 30.5439C76.6029 30.5957 76.6029 30.5956 76.6029 30.5955L76.6029 30.5951L76.603 30.5938L76.6033 30.5892L76.6043 30.5723L76.6078 30.5088C76.6108 30.4536 76.6149 30.3734 76.6197 30.2713C76.6292 30.0671 76.6411 29.775 76.6511 29.4207C76.6709 28.7134 76.683 27.7526 76.6509 26.7456C76.6189 25.7438 76.5426 24.6712 76.3794 23.7493C76.2979 23.2886 76.191 22.8437 76.0472 22.4542C75.9198 22.1091 75.7421 21.7478 75.4786 21.4623C74.5469 20.0725 73.2666 19.3768 72.2384 19.0258C71.7152 18.8472 71.2493 18.7547 70.9128 18.704C70.8334 18.6921 70.7612 18.6825 70.6975 18.6746L70.6916 18.6683L70.3767 18.6356C68.1971 18.4095 65.6261 18.9618 63.6683 19.5313C62.6753 19.8202 61.812 20.122 61.1966 20.3518C60.8885 20.4668 60.6417 20.564 60.4708 20.633C60.3853 20.6675 60.3187 20.695 60.2729 20.7141L60.2199 20.7363L60.206 20.7422C56.5241 22.2569 50.3645 24.8089 45.1253 26.9822C42.5043 28.0694 40.1133 29.062 38.3776 29.7828L36.3186 30.638L35.7573 30.8712L35.6112 30.9319L35.5739 30.9474L35.5645 30.9513L35.5621 30.9523L35.5615 30.9526C35.5614 30.9526 35.5613 30.9526 35.8666 31.6872L35.5613 30.9526L35.5554 30.9552C31.0309 32.8756 27.8941 33.858 25.9043 34.3596C24.9097 34.6103 24.2025 34.7406 23.7525 34.808C23.7512 34.8082 23.7499 34.8084 23.7486 34.8086M1.16938 4.59607L23.7486 34.8086M5.70501 1.59406L5.70506 1.5941L5.71318 1.5995C5.722 1.60532 5.73764 1.61551 5.76044 1.62996C5.80603 1.65885 5.88026 1.70475 5.98593 1.76666C6.19729 1.89049 6.53429 2.0783 7.01934 2.32222C7.98959 2.81015 9.55105 3.52202 11.8825 4.3951L12.1094 4.48007L12.2578 4.67162L12.6743 5.20929L12.7156 5.26258L12.748 5.32169L11.9998 5.73172C12.748 5.32169 12.7481 5.32198 12.7483 5.32229L12.7486 5.32291L12.7493 5.32423L12.7509 5.32714L12.7547 5.33413L12.7647 5.35328C12.7726 5.36848 12.783 5.38894 12.7964 5.4158C12.823 5.46941 12.8617 5.54955 12.9153 5.66547C13.0224 5.89704 13.1911 6.27549 13.4446 6.87673C13.9513 8.07897 14.8013 10.1823 16.1816 13.8013L16.1845 13.8087L16.1872 13.8162L23.7486 34.8086M5.70501 1.59406L23.7486 34.8086" fill="#FFE500" stroke="#FFE500" stroke-width="1.70628"/>
<path d="M75.7924 37.7629C77.1387 35.0248 78.7997 32.4284 80.6548 29.9665C82.5064 27.4977 84.5696 25.1793 86.7779 22.992C91.2137 18.64 96.2545 14.8529 101.718 11.7441C107.177 8.62664 113.068 6.19105 119.2 4.53701C125.33 2.88122 131.704 2.01399 138.093 2C144.482 2.00699 150.859 2.87248 156.989 4.52827C163.121 6.1823 169.013 8.61266 174.473 11.7319C179.937 14.8407 184.98 18.6278 189.416 22.9815C191.622 25.1688 193.685 27.4907 195.537 29.9595C197.39 32.4231 199.05 35.0231 200.394 37.7611C198.224 35.6158 196.006 33.5981 193.705 31.7115C192.551 30.7726 191.384 29.8581 190.196 28.9822L188.405 27.6866C187.802 27.2652 187.19 26.856 186.585 26.4417C181.703 23.179 176.566 20.4165 171.272 18.14C160.68 13.5905 149.387 11.1217 138.095 11.099C126.804 11.1112 115.507 13.58 104.913 18.1295C99.6186 20.4077 94.4799 23.1703 89.5982 26.4347C87.1538 28.0625 84.7847 29.8267 82.4802 31.7097C80.1775 33.5963 77.9604 35.6175 75.7924 37.7629Z" fill="#FFE500"/>
<path d="M101.051 41.3658H111.268V79.5021H101.051V64.4139H93.5663V79.5021H83.3491V41.3658H93.5663V56.9886H101.051V41.3658ZM127.592 72.0768H140.601V79.5021H117.197V41.3658H140.067V48.7911H127.592V56.5728H138.344V63.9981H127.592V72.0768ZM155.465 72.0768H167.286V79.5021H145.069V41.3658H155.465V72.0768ZM179.408 41.3658H188.199C194.021 41.3658 196.931 43.8211 196.931 48.7317V72.1362C196.931 77.0468 194.021 79.5021 188.199 79.5021H179.408C173.586 79.5021 170.676 77.0468 170.676 72.1362V48.7317C170.676 43.8211 173.586 41.3658 179.408 41.3658ZM186.536 70.7699V50.0979C186.536 49.2267 186.041 48.7911 185.051 48.7911H182.556C181.566 48.7911 181.071 49.2267 181.071 50.0979V70.7699C181.071 71.6412 181.566 72.0768 182.556 72.0768H185.051C186.041 72.0768 186.536 71.6412 186.536 70.7699Z" fill="#FFE600"/>
<path d="M101.051 41.3658V40.5127H100.198V41.3658H101.051ZM111.268 41.3658H112.121V40.5127H111.268V41.3658ZM111.268 79.5021V80.3552H112.121V79.5021H111.268ZM101.051 79.5021H100.198V80.3552H101.051V79.5021ZM101.051 64.4139H101.904V63.5608H101.051V64.4139ZM93.5663 64.4139V63.5608H92.7132V64.4139H93.5663ZM93.5663 79.5021V80.3552H94.4194V79.5021H93.5663ZM83.3491 79.5021H82.496V80.3552H83.3491V79.5021ZM83.3491 41.3658V40.5127H82.496V41.3658H83.3491ZM93.5663 41.3658H94.4194V40.5127H93.5663V41.3658ZM93.5663 56.9886H92.7132V57.8417H93.5663V56.9886ZM101.051 56.9886V57.8417H101.904V56.9886H101.051ZM101.051 42.2189H111.268V40.5127H101.051V42.2189ZM110.415 41.3658V79.5021H112.121V41.3658H110.415ZM111.268 78.6489H101.051V80.3552H111.268V78.6489ZM101.904 79.5021V64.4139H100.198V79.5021H101.904ZM101.051 63.5608H93.5663V65.267H101.051V63.5608ZM92.7132 64.4139V79.5021H94.4194V64.4139H92.7132ZM93.5663 78.6489H83.3491V80.3552H93.5663V78.6489ZM84.2023 79.5021V41.3658H82.496V79.5021H84.2023ZM83.3491 42.2189H93.5663V40.5127H83.3491V42.2189ZM92.7132 41.3658V56.9886H94.4194V41.3658H92.7132ZM93.5663 57.8417H101.051V56.1355H93.5663V57.8417ZM101.904 56.9886V41.3658H100.198V56.9886H101.904ZM127.592 72.0768H126.739V72.9299H127.592V72.0768ZM140.601 72.0768H141.454V71.2236H140.601V72.0768ZM140.601 79.5021V80.3552H141.454V79.5021H140.601ZM117.197 79.5021H116.344V80.3552H117.197V79.5021ZM117.197 41.3658V40.5127H116.344V41.3658H117.197ZM140.067 41.3658H140.92V40.5127H140.067V41.3658ZM140.067 48.7911V49.6442H140.92V48.7911H140.067ZM127.592 48.7911V47.9379H126.739V48.7911H127.592ZM127.592 56.5728H126.739V57.4259H127.592V56.5728ZM138.344 56.5728H139.197V55.7196H138.344V56.5728ZM138.344 63.9981V64.8512H139.197V63.9981H138.344ZM127.592 63.9981V63.1449H126.739V63.9981H127.592ZM127.592 72.9299H140.601V71.2236H127.592V72.9299ZM139.748 72.0768V79.5021H141.454V72.0768H139.748ZM140.601 78.6489H117.197V80.3552H140.601V78.6489ZM118.05 79.5021V41.3658H116.344V79.5021H118.05ZM117.197 42.2189H140.067V40.5127H117.197V42.2189ZM139.214 41.3658V48.7911H140.92V41.3658H139.214ZM140.067 47.9379H127.592V49.6442H140.067V47.9379ZM126.739 48.7911V56.5728H128.445V48.7911H126.739ZM127.592 57.4259H138.344V55.7196H127.592V57.4259ZM137.491 56.5728V63.9981H139.197V56.5728H137.491ZM138.344 63.1449H127.592V64.8512H138.344V63.1449ZM126.739 63.9981V72.0768H128.445V63.9981H126.739ZM155.465 72.0768H154.612V72.9299H155.465V72.0768ZM167.286 72.0768H168.139V71.2236H167.286V72.0768ZM167.286 79.5021V80.3552H168.139V79.5021H167.286ZM145.069 79.5021H144.216V80.3552H145.069V79.5021ZM145.069 41.3658V40.5127H144.216V41.3658H145.069ZM155.465 41.3658H156.318V40.5127H155.465V41.3658ZM155.465 72.9299H167.286V71.2236H155.465V72.9299ZM166.433 72.0768V79.5021H168.139V72.0768H166.433ZM167.286 78.6489H145.069V80.3552H167.286V78.6489ZM145.923 79.5021V41.3658H144.216V79.5021H145.923ZM145.069 42.2189H155.465V40.5127H145.069V42.2189ZM154.612 41.3658V72.0768H156.318V41.3658H154.612ZM179.408 42.2189H188.199V40.5127H179.408V42.2189ZM188.199 42.2189C191.011 42.2189 192.96 42.8148 194.198 43.8594C195.409 44.8805 196.078 46.4496 196.078 48.7317H197.785C197.785 46.1032 196.999 43.9894 195.298 42.5552C193.626 41.1444 191.209 40.5127 188.199 40.5127V42.2189ZM196.078 48.7317V72.1362H197.785V48.7317H196.078ZM196.078 72.1362C196.078 74.4183 195.409 75.9874 194.198 77.0085C192.96 78.053 191.011 78.6489 188.199 78.6489V80.3552C191.209 80.3552 193.626 79.7235 195.298 78.3127C196.999 76.8785 197.785 74.7646 197.785 72.1362H196.078ZM188.199 78.6489H179.408V80.3552H188.199V78.6489ZM179.408 78.6489C176.596 78.6489 174.647 78.053 173.409 77.0085C172.198 75.9874 171.529 74.4183 171.529 72.1362H169.822C169.822 74.7646 170.608 76.8785 172.309 78.3127C173.981 79.7235 176.398 80.3552 179.408 80.3552V78.6489ZM171.529 72.1362V48.7317H169.822V72.1362H171.529ZM171.529 48.7317C171.529 46.4496 172.198 44.8805 173.409 43.8594C174.647 42.8148 176.596 42.2189 179.408 42.2189V40.5127C176.398 40.5127 173.981 41.1444 172.309 42.5552C170.608 43.9894 169.822 46.1032 169.822 48.7317H171.529ZM187.389 70.7699V50.0979H185.683V70.7699H187.389ZM187.389 50.0979C187.389 49.5005 187.214 48.905 186.728 48.4773C186.263 48.0679 185.653 47.9379 185.051 47.9379V49.6442C185.439 49.6442 185.571 49.732 185.601 49.7583C185.61 49.7662 185.683 49.8242 185.683 50.0979H187.389ZM185.051 47.9379H182.556V49.6442H185.051V47.9379ZM182.556 47.9379C181.954 47.9379 181.344 48.0679 180.879 48.4773C180.393 48.905 180.218 49.5005 180.218 50.0979H181.924C181.924 49.8242 181.997 49.7662 182.006 49.7583C182.036 49.732 182.168 49.6442 182.556 49.6442V47.9379ZM180.218 50.0979V70.7699H181.924V50.0979H180.218ZM180.218 70.7699C180.218 71.3674 180.393 71.9628 180.879 72.3905C181.344 72.7999 181.954 72.9299 182.556 72.9299V71.2236C182.168 71.2236 182.036 71.1358 182.006 71.1096C181.997 71.1017 181.924 71.0437 181.924 70.7699H180.218ZM182.556 72.9299H185.051V71.2236H182.556V72.9299ZM185.051 72.9299C185.653 72.9299 186.263 72.7999 186.728 72.3905C187.214 71.9628 187.389 71.3674 187.389 70.7699H185.683C185.683 71.0437 185.61 71.1017 185.601 71.1096C185.571 71.1358 185.439 71.2236 185.051 71.2236V72.9299Z" fill="#FFE500"/>
<path d="M220.525 79.8785H210.13V67.5229L199.615 41.7423H210.248L215.238 57.8403L219.871 41.7423H230.445L220.525 67.4041V79.8785ZM253.11 79.8785L251.922 74.1759H242.774L241.527 79.8785H231.31L241.111 41.7423H253.764L263.565 79.8785H253.11ZM244.378 66.81H250.318L247.408 53.0881L244.378 66.81ZM277.226 66.3348V79.8785H266.83V41.7423H284.473C290.294 41.7423 293.205 44.1976 293.205 49.1081V58.9689C293.205 62.7311 291.502 65.0478 288.096 65.919L295.106 79.8785H283.938L277.879 66.3348H277.226ZM281.325 49.1676H277.226V59.2659H281.325C282.315 59.2659 282.81 58.8303 282.81 57.9591V50.4744C282.81 49.6032 282.315 49.1676 281.325 49.1676Z" fill="white"/>
<path d="M220.525 79.8785V80.7317H221.378V79.8785H220.525ZM210.13 79.8785H209.276V80.7317H210.13V79.8785ZM210.13 67.5229H210.983V67.3556L210.919 67.2007L210.13 67.5229ZM199.615 41.7423V40.8891H198.346L198.825 42.0644L199.615 41.7423ZM210.248 41.7423L211.063 41.4897L210.877 40.8891H210.248V41.7423ZM215.238 57.8403L214.423 58.0929L215.268 60.8195L216.058 58.0763L215.238 57.8403ZM219.871 41.7423V40.8891H219.229L219.052 41.5063L219.871 41.7423ZM230.445 41.7423L231.241 42.0499L231.69 40.8891H230.445V41.7423ZM220.525 67.4041L219.729 67.0964L219.672 67.2449V67.4041H220.525ZM220.525 79.0254H210.13V80.7317H220.525V79.0254ZM210.983 79.8785V67.5229H209.276V79.8785H210.983ZM210.919 67.2007L200.405 41.4201L198.825 42.0644L209.34 67.845L210.919 67.2007ZM199.615 42.5954H210.248V40.8891H199.615V42.5954ZM209.433 41.9949L214.423 58.0929L216.053 57.5877L211.063 41.4897L209.433 41.9949ZM216.058 58.0763L220.691 41.9782L219.052 41.5063L214.418 57.6043L216.058 58.0763ZM219.871 42.5954H230.445V40.8891H219.871V42.5954ZM229.649 41.4346L219.729 67.0964L221.321 67.7117L231.241 42.0499L229.649 41.4346ZM219.672 67.4041V79.8785H221.378V67.4041H219.672ZM253.11 79.8785L252.275 80.0525L252.417 80.7317H253.11V79.8785ZM251.922 74.1759L252.757 74.0019L252.616 73.3228H251.922V74.1759ZM242.774 74.1759V73.3228H242.088L241.941 73.9936L242.774 74.1759ZM241.527 79.8785V80.7317H242.214L242.36 80.0609L241.527 79.8785ZM231.31 79.8785L230.483 79.6662L230.21 80.7317H231.31V79.8785ZM241.111 41.7423V40.8891H240.449L240.285 41.5299L241.111 41.7423ZM253.764 41.7423L254.59 41.5299L254.425 40.8891H253.764V41.7423ZM263.565 79.8785V80.7317H264.665L264.391 79.6662L263.565 79.8785ZM244.378 66.81L243.545 66.6261L243.316 67.6632H244.378V66.81ZM250.318 66.81V67.6632H251.371L251.153 66.633L250.318 66.81ZM247.408 53.0881L248.242 52.9111L246.575 52.9042L247.408 53.0881ZM253.946 79.7045L252.757 74.0019L251.087 74.3499L252.275 80.0525L253.946 79.7045ZM251.922 73.3228H242.774V75.0291H251.922V73.3228ZM241.941 73.9936L240.693 79.6962L242.36 80.0609L243.608 74.3582L241.941 73.9936ZM241.527 79.0254H231.31V80.7317H241.527V79.0254ZM232.136 80.0909L241.937 41.9546L240.285 41.5299L230.483 79.6662L232.136 80.0909ZM241.111 42.5954H253.764V40.8891H241.111V42.5954ZM252.937 41.9546L262.739 80.0909L264.391 79.6662L254.59 41.5299L252.937 41.9546ZM263.565 79.0254H253.11V80.7317H263.565V79.0254ZM244.378 67.6632H250.318V65.9569H244.378V67.6632ZM251.153 66.633L248.242 52.9111L246.573 53.2651L249.484 66.9871L251.153 66.633ZM246.575 52.9042L243.545 66.6261L245.211 66.994L248.241 53.272L246.575 52.9042ZM277.226 66.3348V65.4817H276.373V66.3348H277.226ZM277.226 79.8785V80.7317H278.079V79.8785H277.226ZM266.83 79.8785H265.977V80.7317H266.83V79.8785ZM266.83 41.7423V40.8891H265.977V41.7423H266.83ZM288.096 65.919L287.885 65.0925L286.859 65.355L287.334 66.3018L288.096 65.919ZM295.106 79.8785V80.7317H296.489L295.868 79.4957L295.106 79.8785ZM283.938 79.8785L283.159 80.2269L283.385 80.7317H283.938V79.8785ZM277.879 66.3348L278.658 65.9864L278.432 65.4817H277.879V66.3348ZM277.226 49.1676V48.3144H276.373V49.1676H277.226ZM277.226 59.2659H276.373V60.1191H277.226V59.2659ZM276.373 66.3348V79.8785H278.079V66.3348H276.373ZM277.226 79.0254H266.83V80.7317H277.226V79.0254ZM267.684 79.8785V41.7423H265.977V79.8785H267.684ZM266.83 42.5954H284.473V40.8891H266.83V42.5954ZM284.473 42.5954C287.284 42.5954 289.234 43.1913 290.472 44.2359C291.682 45.2569 292.352 46.826 292.352 49.1081H294.058C294.058 46.4797 293.272 44.3658 291.572 42.9316C289.9 41.5209 287.483 40.8891 284.473 40.8891V42.5954ZM292.352 49.1081V58.9689H294.058V49.1081H292.352ZM292.352 58.9689C292.352 60.7241 291.955 62.0503 291.24 63.0228C290.53 63.9892 289.441 64.6945 287.885 65.0925L288.308 66.7455C290.158 66.2723 291.623 65.3836 292.615 64.0333C293.603 62.6891 294.058 60.9759 294.058 58.9689H292.352ZM287.334 66.3018L294.343 80.2614L295.868 79.4957L288.859 65.5362L287.334 66.3018ZM295.106 79.0254H283.938V80.7317H295.106V79.0254ZM284.717 79.5301L278.658 65.9864L277.1 66.6832L283.159 80.2269L284.717 79.5301ZM277.879 65.4817H277.226V67.188H277.879V65.4817ZM281.325 48.3144H277.226V50.0207H281.325V48.3144ZM276.373 49.1676V59.2659H278.079V49.1676H276.373ZM277.226 60.1191H281.325V58.4128H277.226V60.1191ZM281.325 60.1191C281.926 60.1191 282.537 59.9891 283.002 59.5797C283.488 59.152 283.663 58.5565 283.663 57.9591H281.956C281.956 58.2329 281.884 58.2909 281.875 58.2988C281.845 58.325 281.713 58.4128 281.325 58.4128V60.1191ZM283.663 57.9591V50.4744H281.956V57.9591H283.663ZM283.663 50.4744C283.663 49.8769 283.488 49.2815 283.002 48.8538C282.537 48.4444 281.926 48.3144 281.325 48.3144V50.0207C281.713 50.0207 281.845 50.1085 281.875 50.1347C281.884 50.1426 281.956 50.2006 281.956 50.4744H283.663Z" fill="white"/>
</svg>
